<svg xmlns="http://www.w3.org/2000/svg" xmlns:xlink="http://www.w3.org/1999/xlink" width="42" height="42" viewBox="0 0 42 42">
  <defs>
    <filter id="Ellipse_267" x="0" y="0" width="42" height="42" filterUnits="userSpaceOnUse">
      <feOffset dy="3" input="SourceAlpha"/>
      <feGaussianBlur stdDeviation="3" result="blur"/>
      <feFlood flood-opacity="0.161"/>
      <feComposite operator="in" in2="blur"/>
      <feComposite in="SourceGraphic"/>
    </filter>
  </defs>
  <g id="Group_13624" data-name="Group 13624" transform="translate(-1014 -298)">
    <g transform="matrix(1, 0, 0, 1, 1014, 298)" filter="url(#Ellipse_267)">
      <g id="Ellipse_267-2" data-name="Ellipse 267" transform="translate(10 7)" fill="#fff" stroke="rgba(0,0,0,0.32)" stroke-width="1">
        <circle cx="11" cy="11" r="11" stroke="none"/>
        <circle cx="11" cy="11" r="11.5" fill="none"/>
      </g>
    </g>
    <path id="plus" d="M11.915,5.644H6.9V.627a.627.627,0,0,0-1.254,0V5.644H.627a.627.627,0,0,0,0,1.254H5.644v5.017a.627.627,0,1,0,1.254,0V6.9h5.017a.627.627,0,1,0,0-1.254Zm0,0" transform="translate(1035 307.131) rotate(45)" fill="#090b1e"/>
  </g>
</svg>
